<?xml version="1.0" encoding="utf-8"?>
<!-- Generator: Adobe Illustrator 21.1.0, SVG Export Plug-In . SVG Version: 6.00 Build 0)  -->
<svg version="1.1" id="Layer_1" xmlns="http://www.w3.org/2000/svg" xmlns:xlink="http://www.w3.org/1999/xlink" x="0px" y="0px"
	 viewBox="0 0 266.1 360.3" style="enable-background:new 0 0 266.1 360.3;" xml:space="preserve">
<style type="text/css">
	.st0{fill:#1D1E20;}
</style>
<path class="st0" d="M226.6,19.5c-21.7,0-39.3,17.6-39.3,39.3v31.9c-6.5-4.8-14.5-7.6-23.1-7.6c-12.5,0-23.7,5.9-30.8,15.1
	c-1.2-1.6-2.5-3-3.9-4.4c-7.4-7.3-17.2-11.4-27.6-11.4c-0.1,0-0.2,0-0.3,0c-8.6,0.1-16.5,2.9-22.9,7.7V38
	c0-20.5-17.4-37.1-38.8-37.1S1,17.5,1,38v188.7c0,0.5,0,1.1,0,1.6c0,0.3,0,0.5,0,0.8h0c1.3,71.9,60.2,130,132.4,130
	c73,0,132.5-59.4,132.5-132.5V58.8C265.9,37.1,248.3,19.5,226.6,19.5z M141,122.3c0-12.7,10.4-23.1,23.1-23.1s23.1,10.4,23.1,23.1
	v57.9v11.9v6c0,12.7-10.3,23.1-23.1,23.1c-12.6,0-22.9-10.2-23.1-22.7l-0.1-18.3V122.3z M101.6,98.4c6.2-0.1,12.1,2.3,16.5,6.7
	c4.4,4.4,6.9,10.2,6.9,16.5v70.4h0l0,1.5c-7.3-5.9-16.6-9.5-26.8-9.5H78.6v-62.4C78.6,108.9,88.9,98.5,101.6,98.4z M39.8,16.9
	c12.6,0,22.8,9.5,22.8,21.1v146.1H46.1c-11.1,0-21.2,4-29.1,10.7V38C17,26.4,27.2,16.9,39.8,16.9z M249.9,226.7
	c0,64.2-52.2,116.5-116.5,116.5c-63.7,0-115.6-51.4-116.4-114.8c0.4-15.7,13.3-28.3,29.1-28.3h52.2c14.7,0,26.7,12,26.7,26.7
	c0,14.7-12,26.7-26.7,26.7h-2.4v16h2.4c22.7,0,41.2-17.7,42.6-40c6.5,4.8,14.6,7.7,23.2,7.7c21.5,0,39.1-17.5,39.1-39.1v-6v-11.9
	V58.8c0-12.9,10.5-23.3,23.3-23.3s23.3,10.5,23.3,23.3V226.7z"/>
</svg>
